<?xml version="1.0" encoding="UTF-8"?><svg id="Layer_1" xmlns="http://www.w3.org/2000/svg" viewBox="0 0 816.95 523.57"><defs><style>.cls-1{fill:#fff;}</style></defs><path class="cls-1" d="m459.1,483.39v38h357.85v-173.17h-33.09l-10.93,91.73c-3.59,29.18-18.84,42.77-47.97,42.77h-146.75V44.22h56.78V6.22h-172.08v38h52.97v439.17h-56.78Z"/><path class="cls-1" d="m415.68,210.06h39.2c35.37,0,61.09-23.16,72.63-51.73l.84-2.09c11.54-28.57-2.26-51.73-30.83-51.73h-37.72c-28.57,0-42.37-23.16-30.83-51.73l.42-1.04c11.54-28.57-2.26-51.73-30.83-51.73h-46.18c-28.57,0-61.09,23.16-72.63,51.73l-.42,1.04c-11.54,28.57-44.06,51.73-72.63,51.73h-44.7c-28.57,0-61.09,23.16-72.63,51.73l-.84,2.09c-11.54,28.57,2.26,51.73,30.83,51.73h44.7c28.57,0,42.37,23.16,30.83,51.73l-.42,1.04c-11.54,28.57,2.26,51.73,30.83,51.73h44.7c28.57,0,42.37,23.16,30.83,51.73h0c-11.54,28.57-44.06,51.73-72.63,51.73h-43.21c-28.57,0-42.37-23.16-30.83-51.73l.42-1.04c11.54-28.57-2.26-51.73-30.83-51.73h-46.18c-28.57,0-61.09,23.16-72.63,51.73l-.84,2.09c-11.54,28.57,2.26,51.73,30.83,51.73h44.7c28.57,0,42.37,23.16,30.83,51.73l-.42,1.04c-11.54,28.57,2.26,51.73,30.83,51.73h46.18c28.57,0,61.09-23.16,72.63-51.73l.42-1.04c11.54-28.57,44.06-51.73,72.63-51.73h41.06c28.57,0,61.09-23.16,72.63-51.73l.84-2.09c11.54-28.57-2.26-51.73-30.83-51.73h-41.06c-28.57,0-42.37-23.16-30.83-51.73l.42-1.04c11.54-28.57-2.26-51.73-30.83-51.73h-44.7c-28.57,0-42.37-23.16-30.83-51.73h0c11.54-28.57,44.06-51.73,72.63-51.73h43.21c28.57,0,42.37,23.16,30.83,51.73l-.42,1.04c-11.54,28.57,2.26,51.73,30.83,51.73Z"/></svg>